<?xml version="1.0" standalone="no"?>
<!DOCTYPE svg PUBLIC "-//W3C//DTD SVG 20010904//EN"
 "http://www.w3.org/TR/2001/REC-SVG-20010904/DTD/svg10.dtd">
<svg version="1.0" xmlns="http://www.w3.org/2000/svg"
 width="1024.000000pt" height="1024.000000pt" viewBox="0 0 1024.000000 1024.000000"
 preserveAspectRatio="xMidYMid meet">

<g transform="translate(0.000000,1024.000000) scale(0.100000,-0.100000)"
fill="#000000" stroke="none">
<path d="M5135 9093 c-501 -31 -953 -231 -1295 -573 -180 -178 -296 -354 -387
-582 -174 -438 -174 -924 0 -1110 30 -32 35 -44 41 -110 11 -115 64 -369 97
-471 39 -117 114 -275 174 -368 130 -202 332 -401 546 -540 43 -28 79 -55 79
-59 0 -11 -144 -84 -335 -170 -198 -89 -427 -204 -530 -265 -43 -25 -80 -43
-83 -40 -3 2 2 39 11 80 21 95 22 280 2 355 -47 178 -190 336 -363 400 -165
62 -369 34 -527 -72 -33 -22 -81 -61 -106 -85 l-47 -45 -59 58 c-124 121 -279
186 -448 187 -63 0 -123 -6 -164 -16 -199 -53 -364 -214 -433 -422 -20 -60
-23 -90 -23 -215 0 -124 3 -156 23 -220 76 -241 188 -366 684 -762 156 -125
283 -231 331 -279 33 -33 85 -46 116 -29 12 6 108 86 214 178 106 92 208 181
228 197 19 17 114 95 210 176 229 191 271 222 419 311 216 130 570 298 570
271 0 -8 -11 -92 -24 -186 -14 -95 -32 -260 -41 -367 -9 -106 -18 -196 -21
-199 -3 -3 -33 -11 -67 -18 -81 -16 -189 -71 -253 -127 -60 -53 -123 -147
-160 -237 -66 -161 -101 -443 -90 -712 l6 -159 -42 7 c-64 10 -258 62 -341 91
-39 14 -139 59 -222 99 -217 107 -315 185 -660 525 -189 186 -316 302 -364
334 -291 193 -623 78 -697 -241 -59 -256 171 -681 616 -1137 548 -562 1221
-950 2100 -1210 512 -151 1152 -238 1583 -215 505 28 1029 164 1403 364 249
134 465 296 653 490 402 417 616 883 709 1545 l18 125 34 3 c78 6 210 47 295
90 75 38 107 63 190 146 110 111 171 204 230 348 39 95 68 226 59 262 -3 14 9
72 29 137 108 351 159 719 123 889 -42 201 -185 370 -349 412 -38 10 -49 17
-53 37 -18 86 -85 164 -172 204 -71 31 -189 29 -262 -5 -101 -47 -148 -110
-157 -207 -13 -141 74 -260 217 -297 72 -18 114 -14 215 21 86 31 135 31 193
4 54 -27 94 -80 123 -167 90 -264 -87 -978 -313 -1267 -136 -175 -338 -275
-553 -275 -132 0 -239 34 -353 112 -264 181 -477 687 -498 1188 -15 344 102
488 327 404 58 -21 92 -27 159 -28 77 -1 92 2 152 32 105 51 157 131 158 241
0 79 -18 128 -72 186 -67 73 -128 99 -238 100 -77 0 -92 -3 -152 -33 -81 -39
-132 -95 -155 -169 -13 -42 -21 -53 -37 -53 -28 0 -138 -53 -182 -87 -49 -39
-128 -160 -153 -235 -54 -165 -55 -424 -1 -661 5 -23 7 -43 5 -46 -3 -2 -96
39 -207 92 -256 120 -556 254 -591 262 -15 4 -29 11 -32 15 -3 4 48 47 112 95
271 204 477 475 581 765 63 177 109 379 119 531 6 95 7 100 46 151 85 113 102
187 102 438 -1 221 -15 322 -72 509 -65 215 -138 358 -279 546 -285 381 -722
642 -1221 729 -110 20 -330 35 -418 29z m341 -222 c111 -19 229 -47 251 -60
15 -8 -92 -170 -217 -328 -110 -139 -392 -424 -545 -549 -291 -240 -586 -438
-933 -628 -143 -79 -415 -211 -453 -221 -25 -6 -26 -5 -30 52 -2 32 -4 121 -3
198 1 159 20 279 66 424 171 540 684 986 1265 1101 143 28 133 27 319 29 129
1 199 -4 280 -18z m584 -189 c416 -217 734 -632 824 -1075 25 -119 36 -300 26
-405 -5 -52 -10 -96 -13 -98 -8 -8 -456 224 -597 309 -273 165 -562 383 -752
566 l-108 103 73 77 c124 132 305 388 381 538 30 61 18 62 166 -15z m-560
-953 c303 -264 646 -488 1190 -778 l75 -39 -3 -84 c-7 -196 -54 -448 -108
-587 -142 -360 -378 -624 -707 -790 -195 -99 -383 -147 -621 -157 -457 -21
-883 147 -1201 473 -252 258 -405 657 -405 1055 l0 98 203 101 c505 253 902
511 1235 801 l124 109 72 -68 c39 -38 105 -98 146 -134z m-3508 -2290 c108
-23 196 -85 319 -226 43 -50 48 -53 94 -53 52 0 36 -13 186 148 175 186 438
186 579 -1 50 -65 71 -128 77 -227 12 -192 -57 -353 -224 -525 -58 -60 -508
-463 -594 -533 l-29 -24 -93 79 c-50 44 -177 146 -282 228 -254 199 -286 227
-365 319 -76 89 -135 196 -150 276 -49 257 73 473 303 535 65 17 111 18 179 4z
m3828 -324 c0 -26 -89 -243 -147 -360 -81 -162 -210 -366 -379 -602 l-52 -73
-95 138 c-128 186 -230 344 -310 482 -78 136 -211 409 -203 418 4 3 39 -2 79
-11 353 -82 715 -81 1022 2 88 24 85 24 85 6z m325 -66 c149 -57 139 -48 158
-147 67 -345 57 -788 -29 -1171 -14 -63 -27 -118 -29 -122 -3 -4 -29 -10 -58
-14 -227 -28 -434 -178 -537 -388 -53 -109 -73 -214 -67 -347 15 -325 222
-582 531 -660 95 -24 190 -25 293 -4 140 29 241 83 344 184 87 85 140 169 175
277 27 81 29 99 29 238 0 137 -3 156 -27 223 -38 104 -82 174 -163 257 -73 74
-177 143 -259 171 -41 14 -47 19 -42 38 21 70 68 313 86 441 36 256 38 594 4
830 -3 22 -2 35 3 29 4 -6 56 -32 116 -59 59 -26 167 -77 240 -114 l132 -66
26 -96 c114 -430 333 -734 607 -845 65 -26 186 -54 234 -54 l31 0 -7 -85 c-24
-314 -161 -742 -331 -1030 -318 -541 -835 -915 -1490 -1079 -301 -76 -520
-101 -875 -100 -457 0 -853 56 -1345 189 -378 102 -789 261 -1025 395 -40 22
-74 40 -76 40 -9 0 -231 143 -329 213 -424 299 -857 755 -1063 1118 -83 146
-107 282 -64 365 44 86 130 132 221 119 102 -15 149 -52 436 -340 268 -270
384 -372 543 -478 220 -147 471 -241 838 -312 69 -14 132 -25 140 -25 8 0 34
-15 59 -34 129 -99 331 -53 351 80 10 71 -29 124 -107 145 -39 10 -54 10 -95
-4 -26 -8 -51 -14 -55 -11 -22 13 -31 129 -26 319 12 409 69 590 222 695 67
46 140 63 220 50 84 -13 131 -37 179 -91 51 -55 83 -129 107 -242 35 -163 24
-469 -23 -617 -6 -19 -32 -66 -58 -105 -71 -105 -82 -132 -83 -194 0 -66 18
-105 67 -149 111 -97 283 -50 316 87 14 60 3 106 -41 162 -28 36 -28 38 -14
73 29 68 54 200 66 344 30 357 -50 694 -198 834 -42 40 -132 96 -166 104 l-29
6 6 77 c29 328 90 673 143 799 12 29 56 63 67 51 2 -2 23 -42 46 -89 63 -126
151 -285 257 -465 111 -186 412 -642 451 -680 22 -23 33 -26 65 -22 21 3 44
11 53 18 25 20 235 306 330 449 166 247 282 464 368 685 61 155 65 165 69 165
1 0 38 -14 82 -31z m233 -1670 c158 -35 311 -182 362 -347 22 -71 26 -179 9
-252 -50 -219 -261 -390 -478 -390 -142 1 -240 40 -336 135 -249 246 -187 670
119 820 104 51 202 62 324 34z"/>
<path d="M4625 7005 c-5 -2 -22 -6 -37 -9 -14 -3 -41 -18 -58 -32 -96 -81 -94
-244 4 -319 69 -53 196 -47 258 11 84 79 89 199 11 285 -42 47 -132 79 -178
64z"/>
<path d="M5786 6999 c-163 -39 -199 -269 -57 -361 41 -26 53 -29 113 -26 56 3
73 8 105 34 59 47 86 106 80 177 -11 126 -120 205 -241 176z"/>
<path d="M4699 6225 c-35 -19 -53 -65 -44 -112 11 -59 128 -169 235 -221 109
-54 180 -72 310 -79 231 -13 433 59 582 207 49 49 68 76 73 103 14 72 -25 117
-100 117 -26 0 -47 -11 -87 -45 -251 -212 -617 -216 -834 -9 -60 58 -87 65
-135 39z"/>
<path d="M6191 3083 c-65 -23 -125 -88 -140 -151 -28 -116 36 -223 155 -258
146 -42 287 56 287 201 0 102 -59 181 -159 211 -58 17 -87 17 -143 -3z"/>
</g>
</svg>
